<?xml version="1.0" standalone="no"?><!DOCTYPE svg PUBLIC "-//W3C//DTD SVG 1.1//EN" "http://www.w3.org/Graphics/SVG/1.1/DTD/svg11.dtd"><svg t="1591342645901" class="icon" viewBox="0 0 1024 1024" version="1.1" xmlns="http://www.w3.org/2000/svg" p-id="44660" width="32" height="32" xmlns:xlink="http://www.w3.org/1999/xlink"><defs><style type="text/css"></style></defs><path d="M515.259259 911.111111a29.62963 29.62963 0 0 1-29.629629-29.62963V146.469136a29.62963 29.62963 0 0 1 59.259259 0v735.308642a29.62963 29.62963 0 0 1-29.62963 29.333333z" fill="#1296db" p-id="44661"></path><path d="M515.259259 117.135802a29.037037 29.037037 0 0 0-11.061728 2.17284 29.62963 29.62963 0 0 1 18.37037 27.160494v735.308642A29.62963 29.62963 0 0 1 504.197531 908.641975a29.62963 29.62963 0 0 0 40.395062-27.160494V146.469136a29.62963 29.62963 0 0 0-29.333334-29.333334z" fill="#1296db" p-id="44662"></path><path d="M515.160494 326.814815a29.62963 29.62963 0 0 1-14.518519-3.851852l-127.901234-72.790123a29.62963 29.62963 0 0 1 29.037037-51.061729l128.395062 72.790124a29.62963 29.62963 0 0 1-14.518519 54.91358z" fill="#1296db" p-id="44663"></path><path d="M515.259259 326.814815a29.62963 29.62963 0 0 1-14.617284-54.91358l128.395062-72.790124a29.62963 29.62963 0 1 1 29.62963 51.061729l-128.395062 72.790123a29.62963 29.62963 0 0 1-15.012346 3.851852zM643.061728 832.987654a28.839506 28.839506 0 0 1-14.518518-3.358024l-128.395062-72.790124a29.62963 29.62963 0 0 1 29.62963-51.061728l128.395062 72.790123a29.62963 29.62963 0 0 1-14.617284 54.91358z" fill="#1296db" p-id="44664"></path><path d="M387.358025 832.987654a29.62963 29.62963 0 0 1-14.617284-54.91358l127.901234-72.790123a29.62963 29.62963 0 1 1 29.037037 51.061728L401.777778 829.62963a28.444444 28.444444 0 0 1-14.419753 3.358024zM882.864198 543.209877H147.555556a29.62963 29.62963 0 0 1 0-59.25926h735.308642a29.62963 29.62963 0 0 1 0 59.25926z" fill="#1296db" p-id="44665"></path><path d="M882.864198 521.481481H147.555556a29.62963 29.62963 0 0 1-27.160494-18.37037A29.62963 29.62963 0 0 0 147.555556 543.209877h735.308642a29.62963 29.62963 0 0 0 27.160493-40.395062 29.62963 29.62963 0 0 1-27.160493 18.666666z" fill="#1296db" p-id="44666"></path><path d="M731.950617 543.209877a29.62963 29.62963 0 0 1-25.580247-43.950618l72.790124-127.901234a29.62963 29.62963 0 0 1 51.061728 29.037037l-72.691358 128.395061A29.62963 29.62963 0 0 1 731.950617 543.209877z" fill="#1296db" p-id="44667"></path><path d="M804.740741 671.604938a29.62963 29.62963 0 0 1-25.580247-14.814815l-72.790124-128.395061a29.62963 29.62963 0 1 1 51.160494-29.037037l72.691358 127.901234A29.62963 29.62963 0 0 1 819.753086 667.555556a28.839506 28.839506 0 0 1-15.012345 4.049382zM225.679012 671.604938a28.839506 28.839506 0 0 1-14.518518-3.851852 29.62963 29.62963 0 0 1-10.962963-40l72.691358-128.395061a29.62963 29.62963 0 1 1 51.061728 29.629629l-72.691358 128.395062A29.62963 29.62963 0 0 1 225.679012 671.604938z" fill="#1296db" p-id="44668"></path><path d="M298.469136 543.209877a29.62963 29.62963 0 0 1-25.580247-14.814815l-72.691358-128.395062a29.62963 29.62963 0 0 1 51.061728-29.037037l72.691358 128.592593A29.62963 29.62963 0 0 1 298.469136 543.209877zM370.469136 688.296296a29.62963 29.62963 0 0 1-20.740741-50.172839L639.209877 348.641975a29.62963 29.62963 0 0 1 41.481481 41.481482L391.209877 679.604938a29.62963 29.62963 0 0 1-20.740741 8.691358z" fill="#1296db" p-id="44669"></path><path d="M659.950617 688.296296a29.62963 29.62963 0 0 1-20.74074-8.691358L349.728395 390.123457a29.62963 29.62963 0 0 1 41.481482-41.481482l289.481481 289.481482a29.62963 29.62963 0 0 1-20.740741 50.172839z" fill="#1296db" p-id="44670"></path></svg>